# xmcd
#
# Track frame offsets: 
#        150
#        12706
#        13156
#        24459
#        31169
#        37226
#        42385
#        53275
#        58246
#
# Disc length: 913 seconds
#
# Revision: 0
# Processed by: cddbd v1.5.2PL0 Copyright (c) Steve Scherf et al.
# Submitted via: ExactAudioCopy v0.95b4
#
DISCID=73038f09
DTITLE=whynot - don't stop
DYEAR=2007
DGENRE=Hip-Hop
TTITLE0=beat forcrabhat
TTITLE1=untilted
TTITLE2=me and gus (boys in the hood)
TTITLE3=rififi
TTITLE4=st ides
TTITLE5=d.r.e.a.m.
TTITLE6=destroy the crew kill the name
TTITLE7=bullshit
TTITLE8=don't stop
EXTD=
EXTT0=
EXTT1=
EXTT2=
EXTT3=
EXTT4=
EXTT5=
EXTT6=
EXTT7=
EXTT8=
PLAYORDER=
